<svg id="Layer_1" viewBox="0 0 512 512" xmlns="http://www.w3.org/2000/svg" data-name="Layer 1"><path d="m150.863 0h192.729l147.352 147.351v327.7a37.041 37.041 0 0 1 -36.955 36.949h-303.126a37.065 37.065 0 0 1 -36.983-36.954v-438.062a37.09 37.09 0 0 1 36.983-36.984z" fill="#dce3e9" fill-rule="evenodd"/><path d="m167.679 349.494a7.2 7.2 0 0 1 0-14.4h269.494a7.2 7.2 0 1 1 0 14.4zm0 107.949a7.2 7.2 0 0 1 0-14.4h269.494a7.2 7.2 0 1 1 0 14.4zm0-53.975a7.2 7.2 0 0 1 0-14.4h269.494a7.2 7.2 0 1 1 0 14.4z" fill="#44546c"/><path d="m29.188 147.351h285.639a8.185 8.185 0 0 1 8.16 8.161v118.178a8.184 8.184 0 0 1 -8.16 8.161h-285.639a8.179 8.179 0 0 1 -8.132-8.161v-118.178a8.18 8.18 0 0 1 8.132-8.161z" fill="#70c716" fill-rule="evenodd"/><path d="m343.592 0 147.352 147.351h-126.776a20.6 20.6 0 0 1 -20.576-20.546z" fill="#44546c" fill-rule="evenodd"/><path d="m56.9 253.406a7.173 7.173 0 1 1 -11.919-7.985l20.633-30.835-20.63-30.805a7.173 7.173 0 1 1 11.916-7.981l17.341 25.909 17.314-25.909a7.174 7.174 0 1 1 11.92 7.985l-20.6 30.805 20.6 30.835a7.174 7.174 0 1 1 -11.92 7.985l-17.311-25.91zm195.585 0a7.174 7.174 0 1 1 -11.92-7.985l20.6-30.835-20.6-30.805a7.174 7.174 0 1 1 11.92-7.985l17.315 25.909 17.311-25.905a7.174 7.174 0 1 1 11.92 7.985l-20.605 30.805 20.605 30.835a7.174 7.174 0 1 1 -11.92 7.985l-17.311-25.91zm-20.051-56.218a7.2 7.2 0 0 1 -14.4 0 10.25 10.25 0 0 0 -10.2-10.2h-11.734a10.215 10.215 0 0 0 0 20.43h11.74a24.6 24.6 0 0 1 0 49.2h-11.74a24.678 24.678 0 0 1 -24.6-24.6 7.2 7.2 0 0 1 14.4 0 10.25 10.25 0 0 0 10.2 10.2h11.74a10.215 10.215 0 0 0 0-20.43h-11.74a24.6 24.6 0 0 1 0-49.195h11.74a24.627 24.627 0 0 1 24.6 24.6zm-75.684 45.027a7.2 7.2 0 1 1 0 14.4h-37.3a7.2 7.2 0 0 1 -7.2-7.2v-69.626a7.2 7.2 0 1 1 14.4 0v62.426z" fill="#eaf6ff"/></svg>